<svg xmlns="http://www.w3.org/2000/svg" xmlns:xlink="http://www.w3.org/1999/xlink" viewBox="0 0 537.28 168.44"><defs><style>.cls-1{fill:url(#linear-gradient);}.cls-2{font-size:33.6px;fill:none;font-family:LucidaSans-Italic, Lucida Sans;font-style:italic;}.cls-2,.cls-3,.cls-5,.cls-6{stroke:#000;stroke-miterlimit:10;}.cls-4{font-size:110px;fill:#204990;font-family:ErasITC-Bold, Eras Bold ITC;font-weight:700;}.cls-5{fill:#84141c;}.cls-6{fill:#c11623;stroke-width:0.5px;}</style><linearGradient id="linear-gradient" x1="484.53" y1="391.89" x2="484.53" y2="360.52" gradientUnits="userSpaceOnUse"><stop offset="0" stop-color="#fcee21"/><stop offset="0.01" stop-color="#fbeb21"/><stop offset="0.15" stop-color="#ecb824"/><stop offset="0.29" stop-color="#df8b27"/><stop offset="0.43" stop-color="#d46729"/><stop offset="0.57" stop-color="#cc4b2b"/><stop offset="0.72" stop-color="#c6372c"/><stop offset="0.86" stop-color="#c22b2d"/><stop offset="1" stop-color="#c1272d"/></linearGradient></defs><g id="Tag"><path class="cls-1" d="M371.54,385.41l5.12-24.28h9.06a16.34,16.34,0,0,1,6,.82,6.66,6.66,0,0,1,3.14,2.77,9.39,9.39,0,0,1,1.18,5,16.26,16.26,0,0,1-2,7.87,15.3,15.3,0,0,1-5.34,5.8c-2.2,1.38-5.15,2.06-8.87,2.06Zm4.19-2.57h3.73a13,13,0,0,0,7-1.6,11.75,11.75,0,0,0,4.08-4.78,14.55,14.55,0,0,0,1.6-6.62,6.27,6.27,0,0,0-.83-3.32,5.27,5.27,0,0,0-2.69-2.08,19.38,19.38,0,0,0-6.41-.73h-2.43Z" transform="translate(-81.22 -249.51)"/><path class="cls-1" d="M404.07,385.82a6,6,0,0,1-4.69-1.72,6.2,6.2,0,0,1-1.55-4.29,13.54,13.54,0,0,1,1.61-6.27,12.41,12.41,0,0,1,4-4.73,10,10,0,0,1,5.69-1.62c2.18,0,3.77.57,4.78,1.73a6.26,6.26,0,0,1,1.5,4.26,13.44,13.44,0,0,1-1.59,6.23,12.77,12.77,0,0,1-4,4.75A9.9,9.9,0,0,1,404.07,385.82Zm.76-2.43a5.89,5.89,0,0,0,4.93-3,11.32,11.32,0,0,0,2-6.56,5,5,0,0,0-.86-3.2,3.17,3.17,0,0,0-2.59-1.06q-2.78,0-4.81,2.94a11.2,11.2,0,0,0-2.05,6.57,5.06,5.06,0,0,0,.86,3.19A3,3,0,0,0,404.83,383.39Z" transform="translate(-81.22 -249.51)"/><path class="cls-1" d="M429.74,391.89l4.31-6.49-3.15-17.8h3.52l2.42,13.69,9-13.69h3.29L433,391.89Z" transform="translate(-81.22 -249.51)"/><path class="cls-1" d="M455.15,385.82a6,6,0,0,1-4.69-1.72,6.19,6.19,0,0,1-1.54-4.29,13.42,13.42,0,0,1,1.61-6.27,12.39,12.39,0,0,1,4-4.73,10,10,0,0,1,5.69-1.62c2.18,0,3.77.57,4.78,1.73a6.26,6.26,0,0,1,1.5,4.26,13.44,13.44,0,0,1-1.59,6.23,12.85,12.85,0,0,1-4,4.75A10,10,0,0,1,455.15,385.82Zm.76-2.43a5.89,5.89,0,0,0,4.93-3,11.32,11.32,0,0,0,2-6.56,5,5,0,0,0-.86-3.2,3.17,3.17,0,0,0-2.59-1.06q-2.78,0-4.81,2.94a11.2,11.2,0,0,0-2.05,6.57,5.06,5.06,0,0,0,.86,3.19A3,3,0,0,0,455.91,383.39Z" transform="translate(-81.22 -249.51)"/><path class="cls-1" d="M487.33,367.6l-3.76,17.81h-3.44l1.53-7.28a24.89,24.89,0,0,1-4.14,5.49,6.66,6.66,0,0,1-4.6,2.2,2.82,2.82,0,0,1-2.06-.79,3.55,3.55,0,0,1-.82-2.64,9.37,9.37,0,0,1,.21-2l2.69-12.76h3.46l-2.73,12.85a4,4,0,0,0-.09.88,1.39,1.39,0,0,0,.28.92.86.86,0,0,0,.71.34c.85,0,1.91-.73,3.2-2.2a66.32,66.32,0,0,0,4.79-6.51l1.33-6.28Z" transform="translate(-81.22 -249.51)"/><path class="cls-1" d="M517.3,383.62a19.23,19.23,0,0,1-8.46,2.2,6.16,6.16,0,0,1-4.6-1.64,6,6,0,0,1-1.63-4.47,12.82,12.82,0,0,1,1.49-5.94,13.4,13.4,0,0,1,4.07-4.73,9.3,9.3,0,0,1,5.58-1.85,4.86,4.86,0,0,1,3.2.93,3.24,3.24,0,0,1,1.12,2.63,5.81,5.81,0,0,1-1.37,3.72,10.46,10.46,0,0,1-4.07,2.89,20.42,20.42,0,0,1-6.58,1.47,4.62,4.62,0,0,0,1.06,3.35,3.68,3.68,0,0,0,2.74,1.07,13.38,13.38,0,0,0,3.6-.67,18.3,18.3,0,0,0,4.51-2.07Zm-10.93-7.21a17.52,17.52,0,0,0,4.78-1,6.63,6.63,0,0,0,2.63-1.79,3.4,3.4,0,0,0,1-2.16,1.73,1.73,0,0,0-.56-1.22,2,2,0,0,0-1.46-.57,4.63,4.63,0,0,0-2.4.72,7.45,7.45,0,0,0-1.79,1.51,10,10,0,0,0-1.17,1.62A11.3,11.3,0,0,0,506.37,376.41Z" transform="translate(-81.22 -249.51)"/><path class="cls-1" d="M525.48,385.41l-2.42-17.81h3.24l1.87,14.22,9.26-14.22h3.28l-11.77,17.81Z" transform="translate(-81.22 -249.51)"/><path class="cls-1" d="M555.48,383.62a19.23,19.23,0,0,1-8.46,2.2,6.16,6.16,0,0,1-4.6-1.64,6,6,0,0,1-1.63-4.47,12.82,12.82,0,0,1,1.49-5.94,13.4,13.4,0,0,1,4.07-4.73,9.3,9.3,0,0,1,5.58-1.85,4.86,4.86,0,0,1,3.2.93,3.24,3.24,0,0,1,1.12,2.63,5.81,5.81,0,0,1-1.37,3.72,10.46,10.46,0,0,1-4.07,2.89,20.42,20.42,0,0,1-6.58,1.47,4.58,4.58,0,0,0,1.06,3.35,3.68,3.68,0,0,0,2.74,1.07,13.25,13.25,0,0,0,3.59-.67,18.19,18.19,0,0,0,4.52-2.07Zm-10.93-7.21a17.6,17.6,0,0,0,4.78-1,6.63,6.63,0,0,0,2.63-1.79,3.4,3.4,0,0,0,1-2.16,1.73,1.73,0,0,0-.56-1.22,2,2,0,0,0-1.46-.57,4.63,4.63,0,0,0-2.4.72,7.45,7.45,0,0,0-1.79,1.51,10,10,0,0,0-1.17,1.62A11.3,11.3,0,0,0,544.55,376.41Z" transform="translate(-81.22 -249.51)"/><path class="cls-1" d="M559.87,385.41l3.75-17.81h3.45l-1.53,7.28a25.13,25.13,0,0,1,4.53-5.49,7.57,7.57,0,0,1,5-2.2,3.19,3.19,0,0,1,2.24.79,3.4,3.4,0,0,1,.87,2.6,10.54,10.54,0,0,1-.19,2.09l-2.69,12.74H571.9l2.71-12.86a4.24,4.24,0,0,0,.08-.88,1.29,1.29,0,0,0-.31-.91,1,1,0,0,0-.78-.34c-.93,0-2.08.69-3.47,2.07a64.7,64.7,0,0,0-5.49,6.66l-1.33,6.26Z" transform="translate(-81.22 -249.51)"/><path class="cls-1" d="M583.34,385.41l.68-3.23h3.46l-.7,3.23ZM584.7,379l0-.2a9.85,9.85,0,0,1,1.2-3.28,15.27,15.27,0,0,1,2.26-2.53l1.91-1.76a17.83,17.83,0,0,0,3.27-3.54,4.19,4.19,0,0,0,.47-1.93,2.33,2.33,0,0,0-1.06-2,5.16,5.16,0,0,0-3.06-.76,13.46,13.46,0,0,0-2.15.18,18.28,18.28,0,0,0-3.51,1.17l.59-2.84c.91-.28,1.64-.48,2.2-.59a18.18,18.18,0,0,1,1.88-.26c.69-.06,1.38-.09,2-.09a8.39,8.39,0,0,1,4.93,1.28,4,4,0,0,1,1.79,3.47,6,6,0,0,1-1.06,3.35,18.35,18.35,0,0,1-3.8,3.78l-1.37,1.1a9.79,9.79,0,0,0-1.7,1.78,8.64,8.64,0,0,0-1.4,3.47l0,.2Z" transform="translate(-81.22 -249.51)"/><text class="cls-2" transform="translate(287 135.9) scale(1.06 1)">Do you even?</text><line class="cls-3" x1="290.78" y1="145.49" x2="509.78" y2="145.49"/></g><g id="_100" data-name="100"><text class="cls-4" transform="translate(287.83 102.38)">100</text></g><g id="Shadow"><path class="cls-5" d="M81.73,366.17c.52-6.25.87-11.52,1-15.41.25-5.32.49-12.77.72-22.48s.36-16.72.36-20.71c0-1.43,0-3.44,0-6,3.31-2.92,6-5.11,8-6.75,2.82-2.29,6.17-4.94,10.09-7.92s7.38-5.33,10.3-7.12a35.36,35.36,0,0,1,7.58-3.8,7.79,7.79,0,0,1,5.31.11,8.38,8.38,0,0,1,3.84,3.52,26.64,26.64,0,0,1,2.7,8,67.34,67.34,0,0,1,1.11,12.75,85.42,85.42,0,0,1-.64,10.55,57.36,57.36,0,0,1-1.82,9,31.77,31.77,0,0,1-2.63,6.52,18.84,18.84,0,0,1-2.82,4,18,18,0,0,1-3.67,2.76,13,13,0,0,1,3.69,1.79,14.08,14.08,0,0,1,3,3.43,26,26,0,0,1,2.89,6.27,47.6,47.6,0,0,1,1.93,8.7,76.66,76.66,0,0,1,.65,10.13A75.05,75.05,0,0,1,132.25,377a34.26,34.26,0,0,1-3.1,9.81,10.41,10.41,0,0,1-4.35,4.58,8.13,8.13,0,0,1-5.41.82,36.85,36.85,0,0,1-8-3.63,116.76,116.76,0,0,1-12-7.72q-5.28-3.9-10.33-8.18Q85.31,369.52,81.73,366.17ZM98,361.74q3.84,1.71,7.8,3.29a10.93,10.93,0,0,0,4.65,1.09,4.06,4.06,0,0,0,2.82-1.33,8.64,8.64,0,0,0,1.55-3.53,24.23,24.23,0,0,0,.57-5.55,23.15,23.15,0,0,0-.47-4.88,11.57,11.57,0,0,0-1.4-3.64,6.15,6.15,0,0,0-2.27-2.24,11.76,11.76,0,0,0-4.16-1.07c-2.91-.33-5.78-.68-8.59-1.05Q98.23,352.37,98,361.74Zm.92-37q2.85-.47,5.77-.9a23.17,23.17,0,0,0,4.11-.87,8.91,8.91,0,0,0,2.4-1.32,7.17,7.17,0,0,0,2-2.73,15.25,15.25,0,0,0,1.23-4.06,27.09,27.09,0,0,0,.36-4.36,16.1,16.1,0,0,0-.74-5.19,3.87,3.87,0,0,0-2.39-2.66c-1.09-.34-2.75-.07-5,.82Q103,305,99.4,306.61,99.16,315.75,98.9,324.76Z" transform="translate(-81.22 -249.51)"/><path class="cls-5" d="M180.53,252.15a20.34,20.34,0,0,1,14.75,3.25c4.75,3,8.91,8.39,12.48,15.91a103.46,103.46,0,0,1,8,26.17,194.56,194.56,0,0,1,2.66,34,219.54,219.54,0,0,1-2.92,37.11c-1.95,11.28-4.75,20.88-8.42,28.67s-8,13.37-13.09,16.54a21.55,21.55,0,0,1-15.74,3.26c-5.37-1-10.47-3.86-15.31-8.38s-9-10.93-12.52-18.84A102.94,102.94,0,0,1,143,365.27a164.67,164.67,0,0,1-2.18-27.67,157.54,157.54,0,0,1,4.62-39.66c3.08-12,7.69-22.34,13.89-30.73S172.59,253.48,180.53,252.15Zm-.86,35.21c-3.65.36-6.94,2.94-9.86,7.56s-5.17,10.73-6.73,18.3a118.38,118.38,0,0,0-2.34,24,103,103,0,0,0,2.13,21.6q2.13,10,6.51,16.11c2.93,4.09,6,6.37,9.34,6.7,3.52.36,6.77-1.53,9.72-5.73s5.22-10.3,6.77-18.26a130.66,130.66,0,0,0,2.33-25.13,120,120,0,0,0-2.16-23.57c-1.44-7.16-3.56-12.65-6.34-16.43S183.14,287,179.67,287.36Z" transform="translate(-81.22 -249.51)"/><path class="cls-5" d="M225.64,416.46q1.22-28.32,1.74-46.11,1-32.52,1.52-64.5t.51-52.35c4.35.56,8.19,1.13,11.53,1.63,2.26.35,5.5.79,9.7,1.49q-.57,20.63-1.14,41.37-.72,32.46-1.43,65.15-.1,8-.19,16c5.44-.35,8.95-.73,10.58-1a117.45,117.45,0,0,0,18.46-3.9q-.51,15.78-1,31.71a216.62,216.62,0,0,1-23.33,6.36A228.86,228.86,0,0,1,225.64,416.46Z" transform="translate(-81.22 -249.51)"/><path class="cls-5" d="M282.6,403.54c.67-15.57,1.13-27.83,1.37-37,.36-13.65.72-31.21,1.09-52.59.27-16.37.4-28,.4-35.09V267.27c3.51,1.65,6.5,3.1,9,4.28s5.55,2.55,9.36,4.39a99.73,99.73,0,0,1,10.58,5.93,60.55,60.55,0,0,1,9.6,7.7,53.34,53.34,0,0,1,7.45,9.55,68.61,68.61,0,0,1,5.62,11,66.07,66.07,0,0,1,3.37,11.12,52.74,52.74,0,0,1,1.14,10.7,58.66,58.66,0,0,1-.88,10.16,74.26,74.26,0,0,1-2.5,10,84.1,84.1,0,0,1-3.82,9.67,88.49,88.49,0,0,1-5.1,9.34,63.12,63.12,0,0,1-4.4,6.22,51.33,51.33,0,0,1-6.2,6.24A69.3,69.3,0,0,1,308.46,391a179.78,179.78,0,0,1-17.56,8.79C289.21,400.5,286.46,401.81,282.6,403.54Zm19.15-35.25a26.13,26.13,0,0,0,12.6-5.11,21.41,21.41,0,0,0,5.79-7.57,42.22,42.22,0,0,0,3.62-11.33,71.2,71.2,0,0,0,1.16-12.74,49.11,49.11,0,0,0-1.73-13.75,25,25,0,0,0-4.65-9.47,18.59,18.59,0,0,0-8.09-5.33,49.57,49.57,0,0,0-7.25-1.89Q302.48,334.25,301.75,368.29Z" transform="translate(-81.22 -249.51)"/></g><g id="Bold"><path class="cls-6" d="M86.18,361.7c.51-6,.85-11.09,1-14.84.25-5.12.49-12.32.72-21.69s.35-16.14.35-20c0-1.39,0-3.32,0-5.81,3.27-2.93,6-5.12,8-6.75,2.79-2.28,6.1-4.94,10-7.91s7.29-5.31,10.17-7.1a35.3,35.3,0,0,1,7.5-3.81,7.76,7.76,0,0,1,5.25.06,8.23,8.23,0,0,1,3.8,3.43,26.21,26.21,0,0,1,2.67,7.87,65.69,65.69,0,0,1,1.1,12.52A82.69,82.69,0,0,1,136,308a56.62,56.62,0,0,1-1.8,8.86,31.61,31.61,0,0,1-2.59,6.4,18.79,18.79,0,0,1-2.8,3.91,17.54,17.54,0,0,1-3.63,2.7,13.07,13.07,0,0,1,3.65,1.77,13.71,13.71,0,0,1,3,3.36,25.68,25.68,0,0,1,2.86,6.15,45.94,45.94,0,0,1,1.91,8.55,75.64,75.64,0,0,1,.64,9.95,73.41,73.41,0,0,1-1.1,13.19,33,33,0,0,1-3.07,9.61,10.14,10.14,0,0,1-4.29,4.46,8.13,8.13,0,0,1-5.36.75,36.78,36.78,0,0,1-8-3.64,117.47,117.47,0,0,1-11.84-7.73q-5.22-3.87-10.21-8.16Q89.72,365,86.18,361.7Zm16.06-4Q106,359.43,110,361a11.08,11.08,0,0,0,4.6,1.11,4,4,0,0,0,2.78-1.29,8.3,8.3,0,0,0,1.53-3.45,23.09,23.09,0,0,0,.57-5.43,22.77,22.77,0,0,0-.46-4.77,11.14,11.14,0,0,0-1.39-3.57,6.14,6.14,0,0,0-2.24-2.21,11.71,11.71,0,0,0-4.12-1q-4.32-.51-8.49-1.06Q102.49,348.58,102.24,357.72Zm.91-36q2.82-.46,5.7-.9a22.79,22.79,0,0,0,4.06-.86,9,9,0,0,0,2.38-1.3,7,7,0,0,0,2-2.68,15.15,15.15,0,0,0,1.22-4,27.12,27.12,0,0,0,.35-4.27,15.45,15.45,0,0,0-.73-5.08,3.74,3.74,0,0,0-2.36-2.58c-1.08-.33-2.72,0-4.9.84-2.45,1-4.86,2-7.25,3.11Q103.4,312.9,103.15,321.68Z" transform="translate(-81.22 -249.51)"/><path class="cls-6" d="M183.88,250.05a20.22,20.22,0,0,1,14.6,3.18c4.69,3,8.81,8.26,12.34,15.67a102.1,102.1,0,0,1,7.92,25.78,191.3,191.3,0,0,1,2.62,33.55,214.32,214.32,0,0,1-2.89,36.57c-1.92,11.12-4.7,20.58-8.32,28.26s-8,13.17-13,16.28a21.35,21.35,0,0,1-15.57,3.19c-5.3-1-10.35-3.83-15.14-8.3s-8.91-10.79-12.39-18.59a101.56,101.56,0,0,1-7.35-24.22,161.44,161.44,0,0,1-2.15-27.21,154.43,154.43,0,0,1,4.56-39c3.06-11.77,7.61-22,13.74-30.28S176,251.38,183.88,250.05ZM183,284.73c-3.61.36-6.86,2.92-9.76,7.46s-5.11,10.58-6.65,18a115.41,115.41,0,0,0-2.32,23.6,100.54,100.54,0,0,0,2.11,21.26q2.1,9.81,6.44,15.87c2.9,4,6,6.29,9.24,6.62,3.49.36,6.69-1.5,9.62-5.64s5.16-10.15,6.69-18a128.4,128.4,0,0,0,2.31-24.76A117.28,117.28,0,0,0,198.57,306c-1.43-7.06-3.52-12.47-6.27-16.19S186.46,284.39,183,284.73Z" transform="translate(-81.22 -249.51)"/><path class="cls-6" d="M228.51,411.93q1.19-27.9,1.72-45.43,1-32,1.5-63.56t.5-51.59c4.31.56,8.11,1.13,11.42,1.63,2.23.35,5.44.79,9.59,1.5q-.57,20.29-1.13,40.74-.71,31.95-1.42,64.15l-.18,15.81c5.38-.35,8.85-.74,10.46-1a116.69,116.69,0,0,0,18.27-3.87q-.5,15.51-1,31.18a209.85,209.85,0,0,1-23.08,6.35A221.74,221.74,0,0,1,228.51,411.93Z" transform="translate(-81.22 -249.51)"/><path class="cls-6" d="M284.86,399c.66-15.3,1.11-27.36,1.35-36.37q.54-20.13,1.07-51.7c.27-16.08.41-27.53.41-34.47V265.11c3.47,1.64,6.42,3.08,8.89,4.27s5.49,2.55,9.26,4.38a97.69,97.69,0,0,1,10.46,5.94,60,60,0,0,1,9.5,7.66,53.93,53.93,0,0,1,7.36,9.43,68.24,68.24,0,0,1,5.55,10.8,63.41,63.41,0,0,1,3.33,10.8,49.44,49.44,0,0,1,1.14,10.34,55.63,55.63,0,0,1-.88,9.8,71,71,0,0,1-2.47,9.72,83.47,83.47,0,0,1-3.77,9.43,89.51,89.51,0,0,1-5.05,9.16,62.68,62.68,0,0,1-4.34,6.14,52.38,52.38,0,0,1-6.13,6.18,69.22,69.22,0,0,1-10.11,7.3,174.32,174.32,0,0,1-17.36,8.78C291.39,396,288.68,397.31,284.86,399Zm18.94-34.72a25.19,25.19,0,0,0,4.88-1.11,25.89,25.89,0,0,0,7.58-4,21.3,21.3,0,0,0,5.72-7.44,41.19,41.19,0,0,0,3.58-11.08,68.67,68.67,0,0,0,1.15-12.42A47.65,47.65,0,0,0,325,314.87a24.7,24.7,0,0,0-4.6-9.28,18.65,18.65,0,0,0-8-5.27,48.63,48.63,0,0,0-7.17-1.89Q304.52,330.92,303.8,364.31Z" transform="translate(-81.22 -249.51)"/></g></svg>